<svg xmlns="http://www.w3.org/2000/svg" viewBox="0 0 1000.0 1000.0">
   <defs>
      <linearGradient id="G0" x1="0" y1="0" x2="0" y2="1">
         <stop offset="80%" stop-color="#000" />
         <stop offset="100%" stop-color="hsl(130, 100%, 10%)" />
      </linearGradient>
      <linearGradient id="G1" x1="0" y1="0" x2="0" y2="1">
         <stop offset="0%" stop-color="#fff" />
         <stop offset="100%" stop-color="hsl(130, 100%, 70%)" />
      </linearGradient>
      <linearGradient id="G3" x1="0" y1="0" x2="0" y2="1">
         <stop offset="0%" stop-color="hsl(130, 100%, 40%)" />
         <stop offset="100%" stop-color="#fff" />
      </linearGradient>
   </defs>
   <path stroke="url(#G3)" stroke-width="25" d="M 760 170 L 760 320 M 230 170 L 230 320" />
   <path fill="url(#G1)" d="M250 750L410 750C417.23 750 424.46 750 426.32 757.89C428.17 765.79 424.66 781.57 416.13 796.77C407.60 811.98 394.05 826.61 400 836C405.95 845.39 431.41 849.53 460 840C488.59 830.47 520.31 807.28 540 790C559.69 772.72 567.34 761.36 575 750L750 750Q850 750 850 650L850 450C800 100 200 100 150 450L150 650Q150 750 250 750z" />
   <path fill="url(#G0)" d="M200 600Q200 700 300 700L700 700Q800 700 800 600L800 500C800 150 200 150 200 500L200 600z" />
   <g fill="hsl(130, 100%, 50%)">
      <circle cx="230" cy="170" r="40" />
      <circle cx="760" cy="170" r="40" />
      <g id="shadow" style="filter: drop-shadow(0 0 10px hsl(130, 100%, 40%))">
         <rect x="320" y="360" width="120" height="180" rx="40" />
         <rect x="560" y="360" width="120" height="180" rx="40" />
         <path d="M 430 580 C 430 670 570 670 570 580" />
      </g>
   </g>
</svg>